<?xml version="1.0" standalone="no"?>
<!DOCTYPE svg PUBLIC "-//W3C//DTD SVG 20010904//EN"
 "http://www.w3.org/TR/2001/REC-SVG-20010904/DTD/svg10.dtd">
<svg version="1.0" xmlns="http://www.w3.org/2000/svg"
 width="1352.000000pt" height="1352.000000pt" viewBox="0 0 1352.000000 1352.000000"
 preserveAspectRatio="xMidYMid meet">

<g transform="translate(0.000000,1352.000000) scale(0.100000,-0.100000)"
fill="#000000" stroke="none">
<path d="M2212 10013 c-147 -423 -2032 -5917 -2032 -5924 0 -5 359 -8 906 -7
l907 3 131 457 131 458 916 0 c865 0 917 -1 922 -17 19 -69 249 -872 253 -885
5 -17 58 -18 921 -18 728 0 914 3 911 13 -3 6 -474 1361 -1049 3009 l-1044
2998 -921 0 -921 0 -31 -87z m1222 -2638 c147 -533 269 -978 272 -987 5 -17
-26 -18 -545 -18 -303 0 -551 3 -551 8 -1 20 546 1980 551 1974 3 -4 126 -443
273 -977z"/>
<path d="M6690 7090 l0 -3010 840 0 840 0 1 443 c1 243 5 1116 8 1939 l6 1497
530 -1004 530 -1004 517 -1 516 0 20 33 c10 17 243 463 518 989 l499 956 3
-1924 2 -1924 860 0 860 0 0 3010 0 3010 -1002 -2 -1002 -3 -605 -1112 c-333
-612 -609 -1111 -613 -1110 -4 1 -288 502 -630 1112 l-623 1110 -1037 3 -1038
2 0 -3010z"/>
</g>
</svg>
